<svg width="442" height="358" viewBox="0 0 442 358" fill="none" xmlns="http://www.w3.org/2000/svg">
<path opacity="0.1" d="M53.0052 41.7355C57.0425 17.6466 77.8926 0.00012207 102.317 0.00012207H392C419.614 0.00012207 442 22.3859 442 50.0001V308C442 335.614 419.614 358 392 358H59.0772C28.1619 358 4.65495 330.226 9.76502 299.736L53.0052 41.7355Z" fill="#68C9BA"/>
<path d="M410.014 94.0295C435.738 123.207 405.363 151.381 351.903 152.141C245.616 145.137 221.631 51.0074 229.664 29.9028C237.697 8.79815 261.615 8.2221 297.054 51.2151C332.493 94.2081 377.858 57.5572 410.014 94.0295Z" stroke="white" stroke-width="1.5"/>
<ellipse cx="305.634" cy="59.1502" rx="16.8481" ry="9.95569" transform="rotate(20.7184 305.634 59.1502)" stroke="white" stroke-width="1.5"/>
</svg>
