<svg width="442" height="358" viewBox="0 0 442 358" fill="none" xmlns="http://www.w3.org/2000/svg">
<path opacity="0.1" d="M53.0052 41.737C57.0425 17.6481 77.8926 0.00158691 102.317 0.00158691H392C419.614 0.00158691 442 22.3873 442 50.0016V308.002C442 335.616 419.614 358.002 392 358.002H59.0772C28.1619 358.002 4.65495 330.227 9.76502 299.737L53.0052 41.737Z" fill="#2D9CDB"/>
<ellipse cx="382.674" cy="306.032" rx="30.9248" ry="18.2737" transform="rotate(20.7184 382.674 306.032)" stroke="white" stroke-width="1.5"/>
<path d="M108.726 247.712C48.1914 259.919 33.5671 195.795 74.9576 121.691C168.954 -18.8767 317.406 22.8654 340.045 50.6612C362.685 78.457 344.491 111.798 257.252 126.395C170.014 140.991 184.393 232.454 108.726 247.712Z" stroke="white" stroke-width="1.5"/>
</svg>
