<svg width="50" height="50" viewBox="0 0 50 50" fill="none" xmlns="http://www.w3.org/2000/svg">
<ellipse opacity="0.1" cx="25" cy="25.102" rx="25" ry="24.538" fill="#212353"/>
<path d="M25.0018 20.6983C22.7316 20.6983 20.9005 22.4361 20.9005 24.5906C20.9005 26.745 22.7316 28.4828 25.0018 28.4828C27.2719 28.4828 29.1031 26.745 29.1031 24.5906C29.1031 22.4361 27.2719 20.6983 25.0018 20.6983ZM25.0018 27.1211C23.5347 27.1211 22.3354 25.9862 22.3354 24.5906C22.3354 23.1949 23.5312 22.0601 25.0018 22.0601C26.4724 22.0601 27.6682 23.1949 27.6682 24.5906C27.6682 25.9862 26.4688 27.1211 25.0018 27.1211ZM30.2274 20.5391C30.2274 21.0438 29.7991 21.447 29.2708 21.447C28.739 21.447 28.3142 21.0405 28.3142 20.5391C28.3142 20.0378 28.7426 19.6313 29.2708 19.6313C29.7991 19.6313 30.2274 20.0378 30.2274 20.5391ZM32.9438 21.4605C32.8831 20.2444 32.5904 19.1672 31.6516 18.2796C30.7165 17.3921 29.5814 17.1143 28.2999 17.0534C26.9793 16.9822 23.0207 16.9822 21.7001 17.0534C20.4222 17.1109 19.2871 17.3887 18.3484 18.2762C17.4096 19.1638 17.1205 20.241 17.0562 21.4571C16.9813 22.7105 16.9813 26.4673 17.0562 27.7206C17.1169 28.9368 17.4096 30.014 18.3484 30.9015C19.2871 31.789 20.4186 32.0668 21.7001 32.1278C23.0207 32.1989 26.9793 32.1989 28.2999 32.1278C29.5814 32.0702 30.7165 31.7924 31.6516 30.9015C32.5868 30.014 32.8795 28.9368 32.9438 27.7206C33.0187 26.4673 33.0187 22.7139 32.9438 21.4605ZM31.2376 29.0655C30.9592 29.7294 30.4202 30.241 29.717 30.5086C28.664 30.9049 26.1654 30.8134 25.0018 30.8134C23.8381 30.8134 21.336 30.9015 20.2866 30.5086C19.5869 30.2443 19.048 29.7328 18.766 29.0655C18.3484 28.0662 18.4447 25.6949 18.4447 24.5906C18.4447 23.4862 18.3519 21.1116 18.766 20.1157C19.0444 19.4517 19.5834 18.9402 20.2866 18.6726C21.3395 18.2762 23.8381 18.3677 25.0018 18.3677C26.1654 18.3677 28.6676 18.2796 29.717 18.6726C30.4166 18.9368 30.9556 19.4483 31.2376 20.1157C31.6552 21.115 31.5588 23.4862 31.5588 24.5906C31.5588 25.6949 31.6552 28.0696 31.2376 29.0655Z" fill="white"/>
</svg>
