<svg width="50" height="50" viewBox="0 0 50 50" fill="none" xmlns="http://www.w3.org/2000/svg">
<ellipse opacity="0.1" cx="25" cy="25.102" rx="25" ry="24.538" fill="#212353"/>
<path fill-rule="evenodd" clip-rule="evenodd" d="M24.9096 22.4205L24.8699 21.8022C24.7511 20.1998 25.7939 18.7361 27.4438 18.1684C28.051 17.9665 29.0805 17.9412 29.7537 18.1179C30.0177 18.1936 30.5193 18.4459 30.8756 18.6731L31.5224 19.0895L32.2352 18.875C32.6312 18.7614 33.1592 18.5721 33.3967 18.4459C33.6211 18.3324 33.8191 18.2693 33.8191 18.3071C33.8191 18.5216 33.3307 19.2535 32.9216 19.6572C32.3672 20.225 32.5256 20.2755 33.6475 19.8969C34.3207 19.6824 34.3338 19.6824 34.2019 19.9222C34.1226 20.0484 33.7135 20.49 33.2779 20.8937C32.5387 21.5877 32.4992 21.6635 32.4992 22.2439C32.4992 23.1397 32.0504 25.0071 31.6016 26.0291C30.77 27.947 28.9881 29.928 27.2062 30.9248C24.6984 32.3254 21.3589 32.6786 18.5475 31.8585C17.6103 31.5809 16 30.8743 16 30.7482C16 30.7103 16.4883 30.6598 17.0824 30.6472C18.3231 30.622 19.5638 30.2939 20.6197 29.7135L21.3326 29.3097L20.5142 29.0448C19.3526 28.6662 18.3099 27.7956 18.0459 26.9755C17.9667 26.7105 17.9931 26.6978 18.7323 26.6978L19.4978 26.6853L18.8511 26.3951C18.0855 26.0291 17.3859 25.4108 17.0427 24.78C16.7919 24.3257 16.4752 23.1775 16.5676 23.0892C16.5939 23.0514 16.8712 23.127 17.188 23.228C18.0987 23.5434 18.2175 23.4677 17.6895 22.9378C16.6995 21.9789 16.396 20.553 16.8712 19.203L17.0956 18.5973L17.9667 19.4175C19.7486 21.0704 21.8473 22.0546 24.2496 22.3448L24.9096 22.4205Z" fill="white"/>
</svg>
